# xmcd CD database file
#
# Track frame offsets:
#	150
#	17318
#	32876
#	47489
#	66365
#	79732
#	95164
#	109940
#	131961
#	152199
#	171242
#
# Disc length: 2485 seconds
#
# Revision: 0
# Processed by: cddbd v1.5.2PL0 Copyright (c) Steve Scherf et al.
# Submitted via: CDex 1.51
#
DISCID=9309b30b
DTITLE=Deana Carter - Did I Shave My Legs For This?
DYEAR=1999
DGENRE=Country
TTITLE0=I've Loved Enough To Know
TTITLE1=We Danced Anyway
TTITLE2=Count Me In
TTITLE3=If This Is Love
TTITLE4=Love Ain't Worth Making
TTITLE5=Before We Ever Heard Goodbye
TTITLE6=How Did I Get There
TTITLE7=Strawberry Wine
TTITLE8=That's How You Know It's Love
TTITLE9=Did I Shave My Legs For This?
TTITLE10=To The Other Side
EXTD=YEAR: 1999
EXTT0=
EXTT1=
EXTT2=
EXTT3=
EXTT4=
EXTT5=
EXTT6=
EXTT7=
EXTT8=
EXTT9=
EXTT10=
PLAYORDER=
